<?xml version="1.0" standalone="no"?>
<!DOCTYPE svg PUBLIC "-//W3C//DTD SVG 20010904//EN"
 "http://www.w3.org/TR/2001/REC-SVG-20010904/DTD/svg10.dtd">
<svg version="1.0" xmlns="http://www.w3.org/2000/svg"
 width="512.000000pt" height="512.000000pt" viewBox="0 0 512.000000 512.000000"
 preserveAspectRatio="xMidYMid meet">
<metadata>
Created by potrace 1.14, written by Peter Selinger 2001-2017
</metadata>
<g transform="translate(0.000000,512.000000) scale(0.100000,-0.100000)"
fill="#000000" stroke="none">
<path d="M2180 5114 c-746 -40 -1158 -139 -1485 -356 -103 -67 -266 -230 -333
-333 -192 -290 -294 -662 -344 -1260 -17 -200 -17 -1010 0 -1210 50 -598 152
-970 344 -1260 67 -103 230 -266 333 -333 290 -192 662 -294 1260 -344 200
-17 1010 -17 1210 0 598 50 970 152 1260 344 103 67 266 230 333 333 192 290
294 662 344 1260 17 200 17 1010 0 1210 -50 598 -152 970 -344 1260 -67 103
-230 266 -333 333 -287 190 -663 294 -1245 343 -123 10 -872 20 -1000 13z m22
-1773 c245 -63 389 -241 388 -479 -2 -218 -121 -377 -335 -445 -79 -25 -194
-37 -361 -37 l-154 0 0 -265 0 -265 -155 0 -155 0 0 755 0 755 348 0 c312 0
357 -2 424 -19z m908 -611 l0 -630 335 0 335 0 0 -125 0 -125 -490 0 -490 0 0
755 0 755 155 0 155 0 0 -630z"/>
<path d="M1747 3103 c-4 -3 -7 -109 -7 -235 l0 -228 176 0 c193 0 234 7 287
51 49 41 69 88 69 169 0 80 -23 139 -72 187 -54 52 -102 63 -285 63 -89 0
-165 -3 -168 -7z"/>
</g>
</svg>
